PathFileType	3	(X/Y/Z)	C:\Users\koon_\Desktop\
DataRate	CameraRate	NumFrames	NumMarkers	Units	OrigDataRate	OrigDataStartFrame	OrigNumFrames
100.0	100.0	9	27	mm	100.0	464	3706	
Frame#	Time	GM:LFHD			GM:RFHD			GM:LBHD			GM:RBHD			GM:C7			GM:T10			GM:CLAV			GM:STRN			GM:RBAK			GM:LSHO			GM:LUPA			GM:LELB			GM:LFRA			GM:LWRA			GM:LWRB			GM:LFIN			GM:RSHO			GM:RUPA			GM:RELB			GM:RFRA			GM:RWRA			GM:RWRB			GM:RFIN			GM:LASI			GM:RASI			GM:LPSI			GM:RPSI			
		X1	Y1	Z1	X2	Y2	Z2	X3	Y3	Z3	X4	Y4	Z4	X5	Y5	Z5	X6	Y6	Z6	X7	Y7	Z7	X8	Y8	Z8	X9	Y9	Z9	X10	Y10	Z10	X11	Y11	Z11	X12	Y12	Z12	X13	Y13	Z13	X14	Y14	Z14	X15	Y15	Z15	X16	Y16	Z16	X17	Y17	Z17	X18	Y18	Z18	X19	Y19	Z19	X20	Y20	Z20	X21	Y21	Z21	X22	Y22	Z22	X23	Y23	Z23	X24	Y24	Z24	X25	Y25	Z25	X26	Y26	Z26	X27	Y27	Z27	
464	4.63	64.466103	1606.4445	-58.933002	-89.646339	1597.6613	-62.174896	68.666931	1585.0793	-190.52177	-94.494888	1579.0427	-176.81091	-8.8702297	1421.5009	-229.9837	-10.080172	1228.8325	-282.38538	2.2877641	1353.4954	-74.549133	3.4641869	1204.73	-33.741394	-100.00057	1310.2415	-278.75946	163.69496	1392.9221	-173.26794	226.60121	1288.3071	-183.89972	252.03279	1084.0156	-243.91997	254.04958	976.77026	-137.5128	262.03662	909.28436	-106.98787	294.11493	885.80219	-162.2632	281.24506	828.75757	-82.400398	-187.99199	1393.0688	-139.52682	-250.96265	1160.2749	-148.3615	-276.36069	1075.3417	-196.67291	-253.29688	1024.5677	-119.1253	-236.57983	897.20337	-81.985146	-265.33228	872.74786	-133.94722	-237.44542	811.2522	-65.149925	139.17572	900.61914	-75.436111	-153.74443	905.19843	-66.128654	56.21373	953.77917	-281.95816	-81.424156	944.67377	-279.61209
465	4.64	63.783428	1606.4468	-58.816147	-90.237144	1597.6531	-61.998924	67.948662	1585.1598	-190.45847	-95.226196	1579.1144	-176.67862	-9.3634367	1421.583	-229.95335	-10.57017	1228.8392	-282.37241	1.7639153	1353.5505	-74.505684	3.2623644	1204.761	-33.795002	-100.38583	1310.0654	-278.70087	162.72495	1393.4133	-173.5419	226.83319	1289.7002	-184.18338	255.79422	1086.3871	-244.23082	261.13037	979.31812	-137.42542	270.42337	912.16949	-106.57217	303.70126	889.47192	-161.94604	291.48517	831.98804	-82.072075	-188.54546	1392.9872	-139.62076	-251.44177	1160.1343	-148.51508	-276.44583	1075.1427	-196.77745	-253.58781	1024.4462	-119.1713	-236.59914	897.03888	-81.897209	-265.22543	872.54504	-133.82422	-237.47322	811.17883	-64.922691	138.7672	900.5954	-75.881401	-153.71812	905.26306	-66.118492	56.136253	953.85266	-282.45703	-81.436195	944.66437	-279.67484
466	4.65	63.107372	1606.3936	-58.721531	-90.863029	1597.6322	-61.916664	67.150276	1585.2493	-190.39163	-95.988731	1579.1832	-176.55795	-10.006939	1421.5819	-229.95549	-11.037065	1228.8053	-282.40396	1.2118212	1353.6426	-74.428299	2.9877238	1204.8004	-33.790207	-100.81709	1309.8923	-278.69949	161.63664	1394.0232	-173.95396	227.15248	1291.4185	-184.50754	260.17371	1089.0587	-244.43311	271.73627	982.89697	-135.97086	280.32513	915.66364	-106.36162	314.1315	893.68268	-161.76222	303.22021	835.8277	-81.880463	-189.13609	1392.84	-139.74475	-251.98024	1160.0186	-148.69305	-276.66931	1074.9147	-196.85497	-253.62793	1024.3356	-119.14693	-236.68283	896.97339	-81.779732	-265.09964	872.37097	-133.73746	-237.5173	811.11304	-64.684776	139.23225	900.92792	-75.578926	-153.65701	905.28387	-66.145111	56.11343	953.76672	-282.00095	-81.4813	944.64221	-279.7298
467	4.66	62.4986	1606.347	-58.722286	-91.497734	1597.6852	-61.692951	66.366089	1585.2345	-190.33887	-96.880669	1579.2784	-176.39944	-10.779999	1421.5548	-230.03546	-11.576957	1228.8159	-282.4501	0.51062095	1353.7029	-74.379799	2.5843589	1204.8804	-33.887527	-101.37772	1309.6755	-278.69989	160.5159	1394.7006	-174.36098	227.57793	1293.3394	-184.7728	265.09924	1092.2089	-244.54918	277.6106	985.96863	-137.24113	291.09314	919.57806	-106.22599	325.30936	898.54187	-161.79672	316.24265	840.35144	-81.784538	-189.82069	1392.7057	-139.83229	-252.56628	1159.8689	-148.92992	-276.88235	1074.6638	-196.93933	-253.78072	1024.1674	-119.1115	-236.63075	896.90057	-81.585609	-265.06824	872.15833	-133.59244	-237.54579	811.03119	-64.440514	139.19778	900.95648	-75.723511	-153.65625	905.30652	-66.14534	55.982582	953.77997	-282.02359	-81.571793	944.59583	-279.76022
468	4.67	61.835743	1606.2811	-58.758606	-92.253174	1597.7098	-61.596931	65.555977	1585.2284	-190.39493	-97.607109	1579.4326	-176.23993	-11.732104	1421.5183	-230.08519	-12.113868	1228.7832	-282.49258	-0.15586606	1353.781	-74.462204	2.2514684	1204.9449	-33.921925	-102.03321	1309.4669	-278.6759	159.28099	1395.4717	-174.84883	228.12834	1295.5148	-185.10257	270.58304	1095.7786	-244.65675	287.40594	990.25433	-137.10004	303.29181	924.23608	-106.45432	337.21906	904.08606	-162.02985	330.58612	845.6767	-81.854919	-190.56824	1392.5502	-139.88792	-253.06042	1159.6606	-149.0815	-277.27509	1074.3726	-196.98439	-254.08107	1024.0605	-119.04418	-236.62715	896.77667	-81.478706	-265.03552	871.94342	-133.39697	-237.51883	810.95306	-64.188858	139.18529	900.96375	-75.884232	-153.67032	905.26202	-66.104271	55.849415	953.76367	-282.09647	-81.693474	944.53796	-279.71561
469	4.68	61.173615	1606.1595	-58.75053	-92.870842	1597.7987	-61.347397	64.728722	1585.2104	-190.43672	-98.441513	1579.6056	-176.0994	-12.664029	1421.4713	-230.21431	-12.715055	1228.764	-282.46967	-0.86376917	1353.8719	-74.484932	1.8291342	1204.993	-33.924477	-102.78477	1309.2576	-278.64496	157.96762	1396.3033	-175.30948	228.71454	1298.0959	-185.4704	276.5253	1099.9117	-244.67474	298.01233	995.26892	-137.08783	316.25436	929.80139	-106.4525	349.88565	910.41223	-162.48303	346.04669	851.90631	-82.148483	-191.38396	1392.3475	-139.93439	-253.65919	1159.4218	-149.22636	-277.73721	1074.0948	-197.03555	-254.34473	1023.8309	-118.94175	-236.6347	896.60345	-81.280922	-265.08203	871.703	-133.19443	-237.49808	810.86719	-63.896484	139.18779	901.00378	-75.986481	-153.70641	905.21014	-66.010147	55.559437	953.83575	-282.67105	-81.866516	944.52478	-279.71329
470	4.69	60.504711	1606.0127	-58.75452	-93.455498	1597.9144	-61.161697	63.801773	1585.189	-190.48119	-99.442215	1579.8442	-175.90729	-13.617973	1421.4553	-230.33823	-13.311764	1228.718	-282.56027	-1.6935562	1353.9482	-74.544853	1.3421825	1205.1145	-33.951103	-103.64825	1309.1499	-278.68384	156.63647	1397.2091	-175.7811	229.37044	1300.9354	-185.79877	282.74658	1104.5071	-244.71979	309.68149	1001.139	-136.9165	330.04697	936.29132	-106.49862	363.30014	917.61279	-162.91512	362.46954	859.151	-82.556694	-192.22562	1392.1033	-139.95538	-254.29657	1159.1427	-149.27026	-278.23486	1073.7687	-196.93404	-254.71199	1023.561	-118.89422	-236.65573	896.46033	-81.143578	-265.12381	871.46436	-132.91547	-237.51117	810.71002	-63.727474	139.14758	901.06079	-76.144073	-153.75023	905.17596	-65.91906	55.334103	953.81018	-282.72501	-82.110168	944.50549	-279.72525
471	4.7	59.88689	1605.8765	-58.837154	-94.233734	1597.9801	-60.995728	62.897972	1585.1863	-190.51729	-100.21588	1580.0465	-175.72231	-14.621326	1421.4869	-230.43719	-13.943712	1228.6233	-282.65311	-2.475307	1354.0399	-74.659393	0.83137006	1205.188	-34.069149	-104.54399	1308.9819	-278.60562	155.22823	1398.1669	-176.21596	230.06989	1303.9399	-186.1232	289.42102	1109.6899	-244.91351	320.96869	1007.688	-137.24576	344.52069	943.70746	-106.54483	377.724	925.89612	-163.42841	379.79898	867.45532	-82.985916	-193.04469	1391.8685	-140.05629	-254.95576	1158.8857	-149.30374	-278.73416	1073.4569	-196.85507	-254.65941	1022.9963	-119.28533	-236.68669	896.25977	-80.978477	-265.29193	871.16071	-132.66429	-237.53806	810.55627	-63.487247	139.12398	901.07825	-76.262886	-153.86507	905.12079	-65.877335	55.090672	953.76471	-282.76553	-82.374298	944.51343	-279.62964
472	4.71	59.240318	1605.718	-58.917171	-94.855209	1598.0817	-60.781151	61.944004	1585.1698	-190.68771	-101.27438	1580.2142	-175.57162	-15.641583	1421.4375	-230.51506	-14.55081	1228.4714	-282.77103	-3.2391412	1354.1685	-74.742332	0.37021571	1205.3027	-34.144737	-105.44695	1308.8248	-278.61603	153.8615	1399.1588	-176.65498	230.77625	1307.1854	-186.39386	296.2865	1115.3828	-244.96233	334.29816	1015.4035	-136.64047	359.5899	952.09851	-106.65456	392.11697	935.06812	-163.96652	397.77203	876.82489	-83.770683	-193.85672	1391.5714	-140.14603	-255.52127	1158.5782	-149.20653	-279.27203	1073.0936	-196.80772	-255.44771	1022.8965	-118.83365	-236.79613	896.05591	-80.835815	-265.50937	870.81757	-132.42723	-237.63594	810.34808	-63.290394	139.05118	901.13544	-76.333549	-153.9039	905.02673	-65.742905	54.785912	953.75531	-282.80966	-82.642143	944.48236	-279.54572
